/* XPM */
static char *dietbitcoin16[] = {
/* columns rows colors chars-per-pixel */
"16 16 161 2 ",
"   c None",
".  c #C97B1E",
"X  c #CF801E",
"o  c #CF801F",
"O  c #D2811F",
"+  c #D3821F",
"@  c #D5831F",
"#  c #F1911D",
"$  c #D78420",
"%  c #D68525",
"&  c #D98520",
"*  c #D98620",
"=  c #DF8D2A",
"-  c #DF8E2C",
";  c #DE8E2E",
":  c #D7913E",
">  c #DE943C",
",  c #DF953E",
"<  c #E18A21",
"1  c #E28B22",
"2  c #E48C23",
"3  c #E58C23",
"4  c #E68D23",
"5  c #E78E22",
"6  c #E88E21",
"7  c #E98F22",
"8  c #EA9023",
"9  c #EB9023",
"0  c #EC9023",
"q  c #EC9123",
"w  c #EE9222",
"e  c #EB9024",
"r  c #EC9125",
"t  c #E69129",
"y  c #EF9529",
"u  c #EC952C",
"i  c #F09323",
"p  c #F19423",
"a  c #F79522",
"s  c #F59623",
"d  c #F79723",
"f  c #F39524",
"g  c #F29425",
"h  c #F59625",
"j  c #F59725",
"k  c #F79624",
"l  c #F69724",
"z  c #F69725",
"x  c #F59626",
"c  c #F69726",
"v  c #F79726",
"b  c #F89521",
"n  c #F89723",
"m  c #F89724",
"M  c #F99724",
"N  c #F69827",
"B  c #F99925",
"V  c #F89826",
"C  c #F99926",
"Z  c #F89927",
"A  c #F99927",
"S  c #F79B29",
"D  c #F4992D",
"F  c #F79A2C",
"G  c #F69B2F",
"H  c #F99A28",
"J  c #F89A29",
"K  c #F89B2A",
"L  c #FA9B2A",
"P  c #F99B2C",
"I  c #F89B2D",
"U  c #F89C2D",
"Y  c #F99C2D",
"T  c #FA9D2D",
"R  c #F99D2F",
"E  c #EF9832",
"W  c #E0953C",
"Q  c #E79A3E",
"!  c #ED9C3A",
"~  c #EE9D3C",
"^  c #F19930",
"/  c #F39B31",
"(  c #F39C33",
")  c #F79E32",
"_  c #F79F34",
"`  c #FA9E30",
"'  c #FA9E31",
"]  c #FA9F33",
"[  c #F19C38",
"{  c #F09D38",
"}  c #F49F38",
"|  c #F9A035",
" . c #FAA035",
".. c #F9A137",
"X. c #F4A03A",
"o. c #F4A03B",
"O. c #F2A03E",
"+. c #F7A23D",
"@. c #F9A238",
"#. c #F8A33C",
"$. c #F9A43F",
"%. c #E49A40",
"&. c #ECA249",
"*. c #EAA24C",
"=. c #F7A440",
"-. c #F7A441",
";. c #F0A245",
":. c #F8A542",
">. c #F2A549",
",. c #F0A74F",
"<. c #F8AA4B",
"1. c #E7A351",
"2. c #E6A557",
"3. c #EFA751",
"4. c #E4A55A",
"5. c #EFAD5E",
"6. c #F0AC59",
"7. c #F4AE5A",
"8. c #E8AC62",
"9. c #EFAF64",
"0. c #EBB474",
"q. c #ECBA7D",
"w. c #E3B782",
"e. c #EDBB80",
"r. c #EFBE83",
"t. c #EEBF89",
"y. c #F3BF80",
"u. c #ECC28E",
"i. c #E9C295",
"p. c #E8C59B",
"a. c #EBC89F",
"s. c #F5C892",
"d. c #E5C7A3",
"f. c #EBCDA7",
"g. c #E1C6A9",
"h. c #E5CBAD",
"j. c #E9CCA9",
"k. c #F1D2AD",
"l. c #EBD0B2",
"z. c #E8D1B5",
"x. c #EFD4B5",
"c. c #E5D1B9",
"v. c #E3D5C4",
"b. c #E6D6C4",
"n. c #EDDCC6",
"m. c #E5D8C8",
"M. c #E7DBCE",
"N. c #E7DCCF",
"B. c #E9DAC9",
"V. c #E8DDCE",
"C. c #EDE1D1",
"Z. c #EBE0D4",
"A. c #E7E0D9",
"S. c #E4E0DC",
"D. c #E6E1DC",
"F. c #E6E3DF",
"G. c #EAE3DB",
"H. c #EBE5DF",
"J. c #ECE7DF",
"K. c #E5E4E3",
"L. c #EBE7E3",
/* pixels */
"        o X                     ",
"        & < w 9 5 0 & O         ",
"      @ q j Z T S m l 8         ",
"      7 h L >.5.6.O.b M g 3     ",
"  . < s J -.e.c.z.i.&.d k v t = ",
"  + p J $.t.m.V.J.F.w.^ m A u ; ",
"  6 s ' q.S.f.7.k.M.*.D P C )   ",
"  4 N  .r.K.n.u.x.D.,.:...' }   ",
"  e U @.<.l.G.j.Z.A.9.+.| ` {   ",
"  i V R =.a.N.y.s.H.p.[ C Y X.  ",
"$ 5 m B G 0.v.B.C.L.g.4.c ] W   ",
"* 1 z B n x 3.d.b.h.1.# K ~ :   ",
"    2 f B m n ;.8.2.y A o.      ",
"        r A H I F a J #.%.      ",
"        % - / E ( _ ! Q         ",
"                    > ,         "
};
