/* XPM */
static char *dietbitcoin64[] = {
/* columns rows colors chars-per-pixel */
"64 64 166 2 ",
"   c None",
".  c #A1741D",
"X  c #AC741D",
"o  c #AC7B1E",
"O  c #B2791E",
"+  c #BA7F20",
"@  c #AF8420",
"#  c #B48520",
"$  c #B88220",
"%  c #BF8B22",
"&  c #B9862B",
"*  c #BF8F2B",
"=  c #B38830",
"-  c #FE8401",
";  c #FD8A04",
":  c #FD8E0C",
">  c #FE900E",
",  c #F78F14",
"<  c #F88F12",
"1  c #FC9214",
"2  c #F7931E",
"3  c #FB951B",
"4  c #FD991E",
"5  c #C98C2A",
"6  c #C69524",
"7  c #D09223",
"8  c #DA9324",
"9  c #D29D26",
"0  c #DB9F27",
"q  c #D39629",
"w  c #DC9D34",
"e  c #E69C26",
"r  c #EC9A27",
"t  c #E69C2B",
"y  c #ED9E2A",
"u  c #F79625",
"i  c #F89624",
"p  c #F69A26",
"a  c #F89825",
"s  c #F59729",
"d  c #F79B2C",
"f  c #F89B2B",
"g  c #F59C33",
"h  c #F99E32",
"j  c #F39E3A",
"k  c #D4A027",
"l  c #DCA227",
"z  c #DFA728",
"x  c #DCA63B",
"c  c #EEA327",
"v  c #ECA42B",
"b  c #ECAD2B",
"n  c #F3A227",
"m  c #FCA227",
"M  c #FDAB27",
"N  c #F2A22B",
"B  c #FCA529",
"V  c #F5AA29",
"C  c #FEAC2A",
"Z  c #EFB02C",
"A  c #F5B02A",
"S  c #FEB42C",
"D  c #FFBB2D",
"F  c #E1A330",
"G  c #E9A436",
"H  c #EBAC33",
"J  c #F6A037",
"K  c #FAA135",
"L  c #F7AE30",
"P  c #FEA930",
"I  c #F5A13C",
"U  c #F9A33B",
"Y  c #FEAA3D",
"T  c #EDB433",
"R  c #FEB432",
"E  c #FDC12F",
"W  c #ECA44D",
"Q  c #EEA84D",
"!  c #F3A445",
"~  c #FAA643",
"^  c #FAA845",
"/  c #F5A749",
"(  c #F4A94D",
")  c #FAAA4B",
"_  c #EEA752",
"`  c #EFAB56",
"'  c #ECAB5C",
"]  c #F3AC55",
"[  c #FBAE52",
"{  c #F1AE5B",
"}  c #FBB056",
"|  c #FBB25B",
" . c #EBAF63",
".. c #F0AF61",
"X. c #EDB164",
"o. c #EDB36B",
"O. c #F0B265",
"+. c #FBB460",
"@. c #F2B46B",
"#. c #EBB673",
"$. c #EEB874",
"%. c #E6B77D",
"&. c #E5B97D",
"*. c #EDBA7A",
"=. c #F0BA75",
"-. c #F0BD7E",
";. c #EBBD83",
":. c #EABF89",
">. c #EEC085",
",. c #EBC28B",
"<. c #F0C48D",
"1. c #E4C392",
"2. c #EBC493",
"3. c #EBC893",
"4. c #E8C699",
"5. c #EBC99B",
"6. c #E7CFA6",
"7. c #E9CBA3",
"8. c #E5CBAA",
"9. c #EBCFAB",
"0. c #E1D4AD",
"q. c #EAD2AB",
"w. c #E7D3B0",
"e. c #EDDAB7",
"r. c #E6D6BB",
"t. c #E9D5B9",
"y. c #E2DABD",
"u. c #EBDABF",
"i. c #F0DAB9",
"p. c #DFD7C5",
"a. c #DEDAD0",
"s. c #E5DDC1",
"d. c #EBDBC3",
"f. c #E5DDCD",
"g. c #EBDECA",
"h. c #DEE7DF",
"j. c #E2E3CE",
"k. c #F0E0C4",
"l. c #F0E3CD",
"z. c #ECE5D3",
"x. c #EBE8D6",
"c. c #E4E6DB",
"v. c #E8E5DE",
"b. c #EEEADC",
"n. c #F1E9D6",
"m. c #F5EBDD",
"M. c #E8E5E0",
"N. c #E2EFE5",
"B. c #ECECE4",
"V. c #EAEDEB",
"C. c #F2EEE2",
"Z. c #E3F1ED",
"A. c #EEF2EB",
"S. c #F4F1E6",
"D. c #F3F3EB",
"F. c #F8F5EC",
"G. c #E7F4F0",
"H. c #EDF3F4",
"J. c #ECF6FA",
"K. c #EEFBFC",
"L. c #F4F6F2",
"P. c #F9F6F1",
"I. c #F5F9F6",
"U. c #F1F7FA",
"Y. c #F4FEFE",
"T. c #FDFFFF",
/* pixels */
"                                                                                                                                ",
"                                                                                                                                ",
"                                                                                                                                ",
"                                                        o     7     @                                                           ",
"                                                    V p 0 S S a S S c A V E k                                                   ",
"                                              S S V a a B f a a a a a a a V V D S F 6                                           ",
"                                        D S V B a u u a a u f a a a u a a u a u a B V l #                                       ",
"                                  a V V B u u u a a a a a f f a a a a a a a a u u a a V V 0                                     ",
"                                $ r a a u a a a u a a a f f f f p f a a a i a a a a i i u m S D                                 ",
"                              D S B a a a a a a a a a u f f p f f f a a a a a a a a a a s i f V V                               ",
"                            e m i i a a a u a a a a u f f p h h f f f a a a a a a a a i i p i p B S                             ",
"                        V D B u a a a u a a a a a a f f f h h h p f f p a a i a a a a a p i p i u f S .                         ",
"                      . n a u a a a a a p p p i a f p p p h K h h f f f f f a a a i a a a a a a a u B n S                       ",
"                      S V a a a a a a a u i a a f f a u u h U K s 3 ; a a f f a a a a a a i a a a a u f D                       ",
"                    D B u a a a a u a a a a i a p p u h p j f K ! :.5.%.u 3 f f a s a a a a a a a a u u V m                     ",
"                  l m u a a a a a a a u u f h p h a ! q.B.a./ > $.V.Y.j.j 1 p f p p a i a a i a a a a u a a D                   ",
"                D S a a a a u a a a a a a a f f f 1 ! x.T.D.$.: { J.T.A.h a h p p f a i a a a a a a a a a u V 8                 ",
"                S u u u a a a a a a u a a f f f h a h g.T.I.o.1 ( H.T.V.! u h 4 f p a p a u a a a u a a a u B n a               ",
"              l m u a a a a a a a a a a f f f f h K i z.T.Y.*.; ! l.T.m._ - 1 u 3 3 h 3 u a a a a a a a a a a a B               ",
"            @ V u a a a u a a a a u a f f f f h f < < q.Y.L.2.p ! l.T.I.5.;.2.5.d.c.1.u 3 a u a a a a u a a a u B               ",
"            9 V u a a a a a a a a a p p h f 3 1 i / X.e.T.T.C.k.B.Y.T.T.T.Y.I.Y.Y.Y.s., f f f a a a a a a a a u B S             ",
"          % V a a a u a u a a a p f h a : 1 ( 2.d.z.S.Y.T.T.T.T.T.T.T.T.T.T.T.T.T.Y.7.> f f f f a u a a a u a u u D             ",
"          l m a a a a a a a u u f f h 2 h 2.z.L.T.Y.T.T.T.T.T.T.Y.T.T.T.T.T.T.L.z.h.%.a h f f f f a a a a a a a u V             ",
"          S f a a a u a a a f f f h 2 i q.Y.Y.T.T.T.T.T.P.H.J.x.u.m.T.T.T.T.L.2.j I p f h f f f f a a a a a a a u B D           ",
"          S a a a a a a a a f f f f 1 *.J.T.T.T.T.T.B.d.5.*.' ] I -.Y.T.T.T.D.Q : f K h h h h f f f f a u a a a u u V           ",
"        c m a a i a a a u f f f f a p G.T.T.T.T.T.B.*.j f U ^ ^ K =.J.T.T.T.J. .K U U U U h h f f f f f a a a a u u B           ",
"        D M i a a i i a f f f f h 1 $.H.T.T.T.T.D.$.f ^ [ } | | ^ =.D.T.T.T.U.;.u ^ ^ U U K K h h f f f f a a a a u a V         ",
"        S a a a a a a p f f f h K 3 *.Y.T.T.T.T.z.u U [ [ | | +.^ @.B.T.T.T.Y.2.u ^ ^ U U U U h h h f f f f a a a a a n         ",
"        A a u a a a f f f f f h f 3 :.Y.T.T.T.T.d.! U | | | | | [ { V.T.T.T.Y.5.j U ^ ^ ^ U U U h h h p f f f f a a f t 5       ",
"      O n m a a a a f f p h h h U 1 ,.D.T.T.T.T.B.*.p Y | } } | ^ / z.T.T.T.Y.t.! ^ ^ ^ U U U U U K h h f f f f f a a S         ",
"        S u u a a f h p h h h K U f { H.T.T.T.T.T.B.>.] ! / ] [ ( o.l.T.T.T.T.f.h ^ ^ ^ ^ ^ ^ U U U U h h f f f f f f V         ",
"        S a u a p p f f h h j U U K I z.T.T.T.T.T.T.Y.B.z.u.d.v.z.n.Y.T.T.T.T.g.] ^ [ ^ ^ ^ ^ U U U U K h h f f f a p B p       ",
"      8 a a u f f f f h h K U U ^ U f $.z.Y.T.T.T.T.T.T.T.T.Y.T.T.T.T.T.T.T.T.b.' U ^ ^ ^ ^ ^ U U K h K h p h f f u a S         ",
"        S u f f f f h h h K U U U ^ U h ` y.x.Y.T.T.T.T.T.T.Y.Y.U.B.S.T.T.T.T.H.] ^ ^ ^ ^ ^ U U U h h f p f p f a u s D         ",
"        D a f f f f f h h K U U U U ^ ^ K a Q u.T.T.T.T.Y.M.t.2.*.@.5.I.T.T.T.H.O.U ^ ^ ^ U U U h h h p f f f u a a u n &       ",
"      X 0 V a a f f f f h h h U U U ^ ^ ^ f *.I.T.T.T.H.5.] ! [ ^ a *.S.T.T.T.D.;.a ^ ^ U U K h h h h f f f a a a u a A         ",
"        a B u a f f f f p h h h h U U U B ! c.T.T.T.T.y.! ^ } | +.^ @.H.T.T.T.Y.;.s I U U U K h h h f f f u a a a a a V         ",
"        V a u a u a f f f f h h h K U U 3 ;.J.T.T.T.L.:.u } } | | [ { A.T.T.T.J.,.h U U U U K h h p f f a a a a a a B D         ",
"          V u a a a u a f f f f h h h K a 5.Y.T.T.T.Y.,.4 | } | +.^ { n.T.T.T.T.9.: f 1 u h h f f f f u a a a a a u V R         ",
"          S u a a a a a a a f f h h h h 3 ,.Y.T.T.T.T.d.] a K ^ U f I d.T.T.T.T.m.@.j `  .h u h f f f u a a u a a u V           ",
"          S B u a a u a a a f f p h h U 1 $.V.T.T.T.T.T.z.9.@.@.*.*.>.D.T.T.T.T.T.P.L.B.h.Q ; n f a u a a a a a a a R           ",
"            V u a a a a a a f f h p f h 3 ^ d.Y.T.T.T.T.T.Y.J.J.D.J.J.T.T.T.T.T.T.T.T.T.J.I 3 a a a a a a a a a u m T           ",
"            S a u a a a a a a a s f f p f 1 ' A.Y.T.T.T.T.T.T.T.T.T.T.T.T.T.T.Y.Y.Y.Y.D.c.` u f a a a a a a a a u V G           ",
"            D B u a a a a u a a u f f f h a 1 ' q.A.J.Y.T.T.T.T.T.J.I.F.T.T.C.7.2.*. .X./ u a a a a a a a u a a m b             ",
"              S u a a a a a a a a a f f p h f 3 3 ! *.,.q.t.D.T.P.,.' ,.D.T.b.s - 2 1 ; < u a a a a a u a a a a n x             ",
"              B a a a a a a i a a a a a f f f h f a > a ; h k.T.D.o.- p H.T.Z.h p p f h f a u a a a a a a a a a T               ",
"              r t B i a a a a a a a a a f f f p h h I h h p d.T.Y.#.1 Q C.T.S./ 3 h h p a a a a a u a a a a a V                 ",
"                + S i a a i a a i a u a a f f f f f h h h i z.T.Y.>.1 I z.T.D. .; p f a a a a a a a a a a a a V                 ",
"                  E m a a a i a a a a a a a a f f f f h a f w.J.U.8.1 f p.J.N.' 3 f a a a a a u a a a a u a R                   ",
"                    r B i a a a a a u a a a u f f f f f f 3 *.y.f.*.m u ' ! Q f a f a a a a a a a a u u 4 m                     ",
"                      D p i a a a a a a a a a a a f f f h u j f 2 s h h f u > 1 a a a a a u a a a a a a S                       ",
"                      S n B i a a u a a u a a a a f f f p h h f h f h h h f f f a a a a a a a a a a a n =                       ",
"                        . R m u a a a a a a a a u a a a f f f f h h p h f f a a a a a a a a a a u a M L                         ",
"                            D m a u a a u a a a a a a a f f f f h h h p f a a a a a a a a u a u f n                             ",
"                              V V u u a a a a a a a u a a f f f f s p f f u a a a a a a u u a B S                               ",
"                                S S m u u a a a a a a a a a f f f f f f a a a u a a a u u f B G                                 ",
"                                    b n V u a a a a a a a a a f f f a a a a a a u u a a V B L                                   ",
"                                      q b B m a u u u a a a a a f f f a a a u u m V S S                                         ",
"                                          F T V m m m u a a u a u f a f a a B V D                                               ",
"                                                  R M R n n V B p V B n K B                                                     ",
"                                                          5     F     F                                                         ",
"                                                                                                                                ",
"                                                                                                                                ",
"                                                                                                                                "
};
